<svg width="51" height="48" viewBox="0 0 51 48" fill="none" xmlns="http://www.w3.org/2000/svg">
<path d="M23.4176 0.966724C24.0962 -0.322131 25.9068 -0.32227 26.5856 0.966481L30.1394 7.7144L21.8672 3.9117L23.4176 0.966724Z" fill="#FE9C10"/>
<path d="M16.8086 13.564L21.8695 3.91302L30.1419 7.71573L19.7886 14.1148L16.8086 13.564Z" fill="#9A3D64"/>
<path d="M19.7891 14.1144L30.1422 7.71541L40.1872 26.9388L32.6599 32.6822L19.7891 14.1144Z" fill="#C33B50"/>
<path d="M1.93359 41.9395L12.4923 21.7982L32.6594 32.6818L1.93359 41.9395Z" fill="#C33E52"/>
<path d="M16.8081 13.5635L19.7883 14.1142L32.6591 32.6819L12.4922 21.7984L16.8081 13.5635Z" fill="#CC3A52"/>
<path d="M1.93359 41.9392L22.897 47.9186L32.6594 32.6815L1.93359 41.9392Z" fill="#AE323E"/>
<path d="M32.6568 32.6815L22.8945 47.9186L46.8637 39.5527L32.6568 32.6815Z" fill="#C53E52"/>
<path d="M35.0461 43.671L22.8945 47.9195H37.5381L35.0461 43.671Z" fill="#AA3E65"/>
<path d="M1.9332 41.939L0.215213 45.2165C-0.425793 46.4395 0.442149 47.9185 1.80082 47.9185H22.8965L1.9332 41.939Z" fill="#93345C"/>
<path d="M40.059 26.5986L32.6602 32.683L46.867 39.5541L40.059 26.5986Z" fill="#D43D58"/>
<path d="M46.8605 39.5524L49.834 45.2153C50.4763 46.4382 49.6084 47.9184 48.2492 47.9184H37.535L35.043 43.6699L46.8605 39.5524Z" fill="#D83F65"/>
</svg>
