<svg width="200" height="49" viewBox="0 0 200 49" fill="none" xmlns="http://www.w3.org/2000/svg">
<path d="M23.4156 0.966724C24.0942 -0.322131 25.9049 -0.32227 26.5836 0.966481L30.1375 7.7144L21.8652 3.9117L23.4156 0.966724Z" fill="#FE9C10"/>
<path d="M16.8086 13.564L21.8695 3.91302L30.1419 7.71573L19.7886 14.1148L16.8086 13.564Z" fill="#9A3D64"/>
<path d="M19.7891 14.1144L30.1422 7.71541L40.1872 26.9388L32.6599 32.6822L19.7891 14.1144Z" fill="#C33B50"/>
<path d="M1.93359 41.9395L12.4923 21.7982L32.6594 32.6818L1.93359 41.9395Z" fill="#C33E52"/>
<path d="M16.8062 13.5635L19.7863 14.1142L32.6572 32.6819L12.4902 21.7984L16.8062 13.5635Z" fill="#CC3A52"/>
<path d="M1.93359 41.9392L22.897 47.9186L32.6594 32.6815L1.93359 41.9392Z" fill="#AE323E"/>
<path d="M32.6588 32.6815L22.8965 47.9186L46.8656 39.5527L32.6588 32.6815Z" fill="#C53E52"/>
<path d="M35.048 43.671L22.8965 47.9195H37.5401L35.048 43.671Z" fill="#AA3E65"/>
<path d="M1.9332 41.939L0.215213 45.2165C-0.425793 46.4395 0.442149 47.9185 1.80082 47.9185H22.8965L1.9332 41.939Z" fill="#93345C"/>
<path d="M40.057 26.5986L32.6582 32.683L46.865 39.5541L40.057 26.5986Z" fill="#D43D58"/>
<path d="M46.8605 39.5524L49.834 45.2153C50.4763 46.4382 49.6084 47.9184 48.2492 47.9184H37.535L35.043 43.6699L46.8605 39.5524Z" fill="#D83F65"/>
<path d="M57.7812 25.3139V9.12887H60.7408V20.6202L69.4344 9.12887H72.2321V25.3139H69.2726V13.8457L60.5789 25.3139H57.7812ZM76.4463 25.3139V12.967H79.3365V17.9844H85.5562V12.967H88.4463V25.3139H85.5562V20.4353H79.3365V25.3139H76.4463ZM100.158 25.5451C100.142 25.5451 100.073 25.5451 99.9498 25.5451C99.8418 25.5451 99.734 25.5451 99.6261 25.5451C99.5336 25.5451 99.4719 25.5451 99.4411 25.5451C96.8361 25.5142 94.8169 24.9517 93.3833 23.8572C91.9498 22.7474 91.2331 21.1674 91.2331 19.1173C91.2331 17.0827 91.9498 15.5258 93.3833 14.4468C94.8169 13.3679 96.8592 12.8129 99.5105 12.7821C99.5413 12.7821 99.603 12.7821 99.6955 12.7821C99.8033 12.7821 99.9036 12.7821 99.9961 12.7821C100.104 12.7821 100.166 12.7821 100.181 12.7821C102.848 12.7821 104.921 13.3292 106.401 14.4237C107.896 15.5026 108.643 17.0673 108.643 19.1173C108.643 21.1829 107.896 22.7705 106.401 23.8803C104.921 24.9902 102.84 25.5451 100.158 25.5451ZM100.065 23.1405C101.376 23.1405 102.455 22.994 103.302 22.7011C104.15 22.3928 104.782 21.9459 105.198 21.3601C105.615 20.7589 105.823 20.0113 105.823 19.1173C105.823 18.2387 105.615 17.5142 105.198 16.9439C104.782 16.3581 104.15 15.9266 103.302 15.6491C102.455 15.3563 101.376 15.2098 100.065 15.2098C100.035 15.2098 99.9574 15.2098 99.8342 15.2098C99.7262 15.2098 99.6569 15.2098 99.6261 15.2098C98.3467 15.2098 97.2985 15.3639 96.4816 15.6722C95.6646 15.9651 95.0557 16.3968 94.655 16.967C94.2696 17.5373 94.077 18.2541 94.077 19.1173C94.077 19.9959 94.2696 20.7281 94.655 21.3139C95.0557 21.8996 95.6646 22.3466 96.4816 22.6549C97.314 22.9632 98.3621 23.1251 99.6261 23.1405C99.6569 23.1405 99.7262 23.1405 99.8342 23.1405C99.9574 23.1405 100.035 23.1405 100.065 23.1405ZM98.5625 29.7994V8.15777H101.291V29.7994H98.5625ZM118.289 25.4757C117.286 25.4757 116.37 25.2445 115.537 24.7821C114.72 24.3196 114.065 23.626 113.572 22.7011C113.094 21.7609 112.855 20.574 112.855 19.1405C112.855 17.6916 113.086 16.5046 113.549 15.5798C114.026 14.6549 114.674 13.969 115.491 13.522C116.307 13.0595 117.24 12.8283 118.289 12.8283C119.506 12.8283 120.578 13.0904 121.503 13.6144C122.443 14.1385 123.182 14.8707 123.722 15.811C124.277 16.7512 124.555 17.861 124.555 19.1405C124.555 20.4199 124.277 21.5373 123.722 22.4931C123.182 23.4333 122.443 24.1655 121.503 24.6896C120.578 25.2136 119.506 25.4757 118.289 25.4757ZM111.445 29.7994V12.967H114.196V15.8803L114.104 19.1636L114.335 22.4468V29.7994H111.445ZM117.965 23.0017C118.659 23.0017 119.275 22.8476 119.815 22.5393C120.37 22.231 120.809 21.784 121.133 21.1983C121.456 20.6125 121.618 19.9266 121.618 19.1405C121.618 18.3389 121.456 17.6529 121.133 17.0827C120.809 16.4969 120.37 16.0499 119.815 15.7416C119.275 15.4333 118.659 15.2792 117.965 15.2792C117.271 15.2792 116.647 15.4333 116.092 15.7416C115.537 16.0499 115.098 16.4969 114.774 17.0827C114.45 17.6529 114.289 18.3389 114.289 19.1405C114.289 19.9266 114.45 20.6125 114.774 21.1983C115.098 21.784 115.537 22.231 116.092 22.5393C116.647 22.8476 117.271 23.0017 117.965 23.0017ZM134.764 25.3139V22.8168L134.602 22.285V17.915C134.602 17.0673 134.348 16.4121 133.839 15.9497C133.33 15.4719 132.559 15.2329 131.527 15.2329C130.833 15.2329 130.148 15.3408 129.469 15.5566C128.807 15.7725 128.244 16.0731 127.781 16.4584L126.648 14.3543C127.311 13.8457 128.097 13.468 129.007 13.2214C129.932 12.9593 130.888 12.8283 131.874 12.8283C133.662 12.8283 135.041 13.2599 136.012 14.1231C136.999 14.9709 137.492 16.2888 137.492 18.0769V25.3139H134.764ZM130.88 25.4757C129.955 25.4757 129.145 25.3216 128.452 25.0133C127.758 24.6896 127.218 24.2503 126.833 23.6954C126.463 23.1251 126.278 22.4853 126.278 21.7763C126.278 21.0826 126.44 20.4584 126.764 19.9035C127.103 19.3485 127.651 18.9092 128.406 18.5855C129.16 18.2618 130.163 18.1 131.411 18.1H134.995V20.0191H131.619C130.633 20.0191 129.97 20.1809 129.631 20.5046C129.292 20.8129 129.122 21.1983 129.122 21.6607C129.122 22.1847 129.33 22.6009 129.747 22.9092C130.163 23.2176 130.741 23.3717 131.481 23.3717C132.189 23.3717 132.822 23.2098 133.377 22.8861C133.947 22.5624 134.356 22.0846 134.602 21.4526L135.088 23.1867C134.81 23.9112 134.31 24.4737 133.585 24.8746C132.876 25.2754 131.974 25.4757 130.88 25.4757ZM141.393 25.3139V9.12887H148.052C149.485 9.12887 150.711 9.36008 151.728 9.82251C152.76 10.2849 153.555 10.9478 154.11 11.811C154.665 12.6742 154.942 13.6992 154.942 14.8861C154.942 16.0731 154.665 17.098 154.11 17.9613C153.555 18.8245 152.76 19.4873 151.728 19.9497C150.711 20.4121 149.485 20.6433 148.052 20.6433H143.058L144.399 19.2329V25.3139H141.393ZM144.399 19.5566L143.058 18.1H147.913C149.238 18.1 150.232 17.8225 150.896 17.2676C151.573 16.6973 151.913 15.9035 151.913 14.8861C151.913 13.8534 151.573 13.0595 150.896 12.5046C150.232 11.9497 149.238 11.6722 147.913 11.6722H143.058L144.399 10.1925V19.5566ZM159.409 20.1116V18.0306H166.114V20.1116H159.409ZM161.097 12.7821C162.422 12.7821 163.594 13.0595 164.611 13.6144C165.629 14.154 166.43 14.9015 167.016 15.8572C167.601 16.7974 167.895 17.8919 167.895 19.1405C167.895 20.3736 167.601 21.4757 167.016 22.4468C166.43 23.4025 165.629 24.1578 164.611 24.7127C163.594 25.2522 162.422 25.522 161.097 25.522C159.987 25.522 158.97 25.337 158.045 24.967C157.12 24.5971 156.349 24.0653 155.733 23.3717L157.397 21.7532C157.89 22.231 158.43 22.5933 159.016 22.8399C159.617 23.0865 160.271 23.2098 160.981 23.2098C161.814 23.2098 162.545 23.0402 163.178 22.7011C163.809 22.3466 164.311 21.861 164.681 21.2445C165.051 20.628 165.236 19.9266 165.236 19.1405C165.236 18.3389 165.051 17.6376 164.681 17.0364C164.311 16.4199 163.809 15.942 163.178 15.6029C162.545 15.2483 161.814 15.0711 160.981 15.0711C160.271 15.0711 159.617 15.1944 159.016 15.441C158.43 15.6876 157.89 16.0576 157.397 16.5509L155.733 14.9324C156.349 14.2387 157.12 13.7069 158.045 13.337C158.97 12.967 159.987 12.7821 161.097 12.7821ZM179.021 23.9728V15.4179H174.281L174.211 17.4064C174.18 18.1154 174.134 18.8014 174.073 19.4642C174.01 20.1116 173.911 20.7127 173.772 21.2676C173.633 21.8072 173.432 22.2541 173.171 22.6087C172.908 22.9632 172.562 23.1944 172.13 23.3023L169.263 22.863C169.726 22.863 170.096 22.7165 170.373 22.4237C170.666 22.1154 170.889 21.6992 171.044 21.1751C171.212 20.6356 171.336 20.0268 171.414 19.3485C171.49 18.6549 171.544 17.9381 171.576 17.1983L171.737 12.967H181.911V23.9728H179.021ZM168.824 28.0653V22.863H183.737V28.0653H181.032V25.3139H171.506V28.0653H168.824ZM193.809 25.3139V22.8168L193.647 22.285V17.915C193.647 17.0673 193.393 16.4121 192.884 15.9497C192.376 15.4719 191.606 15.2329 190.572 15.2329C189.878 15.2329 189.193 15.3408 188.514 15.5566C187.852 15.7725 187.289 16.0731 186.826 16.4584L185.693 14.3543C186.357 13.8457 187.143 13.468 188.052 13.2214C188.977 12.9593 189.933 12.8283 190.919 12.8283C192.707 12.8283 194.086 13.2599 195.058 14.1231C196.045 14.9709 196.537 16.2888 196.537 18.0769V25.3139H193.809ZM189.925 25.4757C189 25.4757 188.191 25.3216 187.497 25.0133C186.803 24.6896 186.265 24.2503 185.878 23.6954C185.508 23.1251 185.323 22.4853 185.323 21.7763C185.323 21.0826 185.485 20.4584 185.809 19.9035C186.149 19.3485 186.696 18.9092 187.451 18.5855C188.207 18.2618 189.208 18.1 190.456 18.1H194.04V20.0191H190.665C189.678 20.0191 189.016 20.1809 188.676 20.5046C188.337 20.8129 188.167 21.1983 188.167 21.6607C188.167 22.1847 188.376 22.6009 188.792 22.9092C189.208 23.2176 189.786 23.3717 190.526 23.3717C191.236 23.3717 191.867 23.2098 192.422 22.8861C192.993 22.5624 193.401 22.0846 193.647 21.4526L194.133 23.1867C193.855 23.9112 193.355 24.4737 192.63 24.8746C191.921 25.2754 191.019 25.4757 189.925 25.4757Z" fill="#1F1F1F"/>
<path d="M60.011 43.811V36.9277L60.4468 37.3786H57.1855V35.7855H64.7V37.3786H61.4538L61.8896 36.9277V43.811H60.011ZM69.4526 43.9162C68.5609 43.9162 67.7794 43.7408 67.1081 43.3902C66.4468 43.0295 65.9309 42.5385 65.5601 41.9173C65.1994 41.2962 65.0191 40.5898 65.0191 39.7983C65.0191 38.9968 65.1945 38.2904 65.5451 37.6792C65.9058 37.058 66.3968 36.572 67.0179 36.2214C67.6491 35.8707 68.3656 35.6954 69.1671 35.6954C69.9486 35.6954 70.645 35.8657 71.2561 36.2064C71.8673 36.5471 72.3482 37.028 72.6988 37.6491C73.0496 38.2703 73.2249 39.0017 73.2249 39.8434C73.2249 39.9235 73.2199 40.0136 73.2098 40.1139C73.2098 40.2141 73.2049 40.3092 73.1948 40.3994H66.5069V39.152H72.2029L71.4665 39.5428C71.4765 39.0818 71.3814 38.6761 71.1809 38.3254C70.9806 37.9748 70.7051 37.6992 70.3543 37.4988C70.0138 37.2985 69.6179 37.1983 69.1671 37.1983C68.7062 37.1983 68.3005 37.2985 67.9497 37.4988C67.6091 37.6992 67.3386 37.9798 67.1382 38.3405C66.9479 38.6911 66.8526 39.1069 66.8526 39.5879V39.8884C66.8526 40.3694 66.9629 40.7951 67.1832 41.1659C67.4037 41.5366 67.7143 41.8222 68.115 42.0225C68.5158 42.2229 68.9768 42.3231 69.4977 42.3231C69.9486 42.3231 70.3543 42.2529 70.715 42.1127C71.0757 41.9725 71.3964 41.752 71.6769 41.4514L72.6838 42.6087C72.3231 43.0295 71.8673 43.3551 71.3162 43.5855C70.7751 43.806 70.154 43.9162 69.4526 43.9162ZM75.2797 43.811V35.7855H82.9745V43.811H81.1109V36.9428L81.5467 37.3786H76.7224L77.1583 36.9428V43.811H75.2797ZM84.337 43.796L84.4272 42.2179C84.4974 42.228 84.5624 42.2379 84.6226 42.248C84.6827 42.258 84.7378 42.263 84.7879 42.263C85.0985 42.263 85.339 42.1679 85.5093 41.9775C85.6797 41.7871 85.8049 41.5316 85.885 41.211C85.9752 40.8803 86.0353 40.5147 86.0653 40.1139C86.1054 39.7031 86.1355 39.2923 86.1555 38.8815L86.2908 35.7855H92.7833V43.811H90.9046V36.8676L91.3405 37.3786H87.5231L87.9289 36.8526L87.8237 38.9717C87.7937 39.683 87.7335 40.3443 87.6434 40.9555C87.5632 41.5566 87.433 42.0827 87.2526 42.5335C87.0823 42.9844 86.8419 43.335 86.5312 43.5855C86.2306 43.8361 85.845 43.9613 85.374 43.9613C85.2237 43.9613 85.0584 43.9462 84.878 43.9162C84.7078 43.8861 84.5274 43.846 84.337 43.796ZM98.8902 43.9162C98.0686 43.9162 97.3372 43.7408 96.696 43.3902C96.0547 43.0295 95.5488 42.5385 95.1781 41.9173C94.8073 41.2962 94.622 40.5898 94.622 39.7983C94.622 38.9968 94.8073 38.2904 95.1781 37.6792C95.5488 37.058 96.0547 36.572 96.696 36.2214C97.3372 35.8707 98.0686 35.6954 98.8902 35.6954C99.7218 35.6954 100.458 35.8707 101.099 36.2214C101.751 36.572 102.257 37.0529 102.617 37.6642C102.988 38.2754 103.173 38.9867 103.173 39.7983C103.173 40.5898 102.988 41.2962 102.617 41.9173C102.257 42.5385 101.751 43.0295 101.099 43.3902C100.458 43.7408 99.7218 43.9162 98.8902 43.9162ZM98.8902 42.3081C99.3511 42.3081 99.7619 42.2079 100.123 42.0075C100.483 41.8072 100.764 41.5165 100.964 41.1358C101.175 40.7551 101.28 40.3092 101.28 39.7983C101.28 39.2772 101.175 38.8314 100.964 38.4607C100.764 38.08 100.483 37.7894 100.123 37.589C99.7619 37.3887 99.3561 37.2884 98.9052 37.2884C98.4443 37.2884 98.0336 37.3887 97.6729 37.589C97.3222 37.7894 97.0416 38.08 96.8312 38.4607C96.6208 38.8314 96.5156 39.2772 96.5156 39.7983C96.5156 40.3092 96.6208 40.7551 96.8312 41.1358C97.0416 41.5165 97.3222 41.8072 97.6729 42.0075C98.0336 42.2079 98.4393 42.3081 98.8902 42.3081ZM105.029 43.811V35.7855H108.952C109.924 35.7855 110.685 35.9659 111.236 36.3266C111.797 36.6873 112.078 37.1983 112.078 37.8595C112.078 38.5108 111.817 39.0217 111.296 39.3925C110.775 39.7532 110.084 39.9335 109.222 39.9335L109.448 39.4676C110.42 39.4676 111.141 39.648 111.612 40.0087C112.093 40.3593 112.333 40.8754 112.333 41.5566C112.333 42.268 112.068 42.824 111.537 43.2249C111.006 43.6156 110.199 43.811 109.117 43.811H105.029ZM106.818 42.4434H108.967C109.478 42.4434 109.864 42.3632 110.124 42.2029C110.385 42.0326 110.515 41.7771 110.515 41.4364C110.515 41.0757 110.395 40.8102 110.154 40.6399C109.914 40.4696 109.538 40.3844 109.027 40.3844H106.818V42.4434ZM106.818 39.137H108.786C109.267 39.137 109.628 39.0518 109.869 38.8815C110.119 38.7012 110.244 38.4506 110.244 38.1301C110.244 37.7994 110.119 37.554 109.869 37.3936C109.628 37.2333 109.267 37.1532 108.786 37.1532H106.818V39.137ZM122.435 43.811V35.7855H124.314V43.811H122.435ZM118.242 38.4306C119.273 38.4306 120.055 38.661 120.587 39.122C121.128 39.5829 121.398 40.2341 121.398 41.0757C121.398 41.9474 121.098 42.6287 120.497 43.1197C119.905 43.6006 119.063 43.8361 117.972 43.826L114.334 43.811V35.7855H116.213V38.4156L118.242 38.4306ZM117.806 42.4434C118.357 42.4534 118.777 42.3382 119.069 42.0977C119.359 41.8572 119.505 41.5066 119.505 41.0457C119.505 40.5847 119.359 40.2541 119.069 40.0538C118.788 39.8434 118.367 39.7332 117.806 39.7231L116.213 39.7081V42.4283L117.806 42.4434ZM130.581 43.9162C129.69 43.9162 128.908 43.7408 128.236 43.3902C127.575 43.0295 127.06 42.5385 126.688 41.9173C126.328 41.2962 126.147 40.5898 126.147 39.7983C126.147 38.9968 126.323 38.2904 126.673 37.6792C127.034 37.058 127.525 36.572 128.146 36.2214C128.777 35.8707 129.494 35.6954 130.295 35.6954C131.077 35.6954 131.773 35.8657 132.384 36.2064C132.996 36.5471 133.477 37.028 133.827 37.6491C134.177 38.2703 134.353 39.0017 134.353 39.8434C134.353 39.9235 134.349 40.0136 134.338 40.1139C134.338 40.2141 134.334 40.3092 134.323 40.3994H127.635V39.152H133.331L132.595 39.5428C132.605 39.0818 132.509 38.6761 132.309 38.3254C132.109 37.9748 131.833 37.6992 131.483 37.4988C131.142 37.2985 130.746 37.1983 130.295 37.1983C129.834 37.1983 129.428 37.2985 129.078 37.4988C128.737 37.6992 128.467 37.9798 128.267 38.3405C128.076 38.6911 127.981 39.1069 127.981 39.5879V39.8884C127.981 40.3694 128.091 40.7951 128.312 41.1659C128.532 41.5366 128.842 41.8222 129.243 42.0225C129.645 42.2229 130.105 42.3231 130.626 42.3231C131.077 42.3231 131.483 42.2529 131.843 42.1127C132.204 41.9725 132.524 41.752 132.805 41.4514L133.812 42.6087C133.451 43.0295 132.996 43.3551 132.445 43.5855C131.904 43.806 131.283 43.9162 130.581 43.9162ZM140.561 43.811V35.7855H148.256V43.811H146.393V36.9428L146.828 37.3786H142.004L142.44 36.9428V43.811H140.561ZM155.661 43.811V42.1879L155.556 41.8422V39.0017C155.556 38.4506 155.39 38.0249 155.06 37.7243C154.729 37.4136 154.227 37.2584 153.557 37.2584C153.106 37.2584 152.66 37.3286 152.219 37.4688C151.788 37.609 151.423 37.8044 151.122 38.0549L150.386 36.6873C150.816 36.3566 151.327 36.1112 151.919 35.9509C152.52 35.7806 153.141 35.6954 153.782 35.6954C154.944 35.6954 155.841 35.976 156.472 36.537C157.113 37.0881 157.434 37.9447 157.434 39.1069V43.811H155.661ZM153.136 43.9162C152.535 43.9162 152.009 43.816 151.558 43.6156C151.107 43.4052 150.756 43.1197 150.506 42.759C150.265 42.3882 150.145 41.9725 150.145 41.5116C150.145 41.0607 150.25 40.6549 150.461 40.2942C150.68 39.9335 151.036 39.648 151.528 39.4376C152.018 39.2272 152.67 39.122 153.482 39.122H155.811V40.3694H153.617C152.975 40.3694 152.544 40.4746 152.324 40.685C152.104 40.8853 151.994 41.1358 151.994 41.4364C151.994 41.7771 152.129 42.0476 152.399 42.248C152.67 42.4483 153.046 42.5486 153.527 42.5486C153.987 42.5486 154.398 42.4434 154.759 42.2329C155.129 42.0225 155.395 41.7119 155.556 41.3012L155.871 42.4283C155.691 42.8992 155.365 43.265 154.894 43.5254C154.433 43.7859 153.847 43.9162 153.136 43.9162ZM159.759 43.811V35.7855H161.638V39.0468H165.68V35.7855H167.559V43.811H165.68V40.6399H161.638V43.811H159.759ZM173.818 43.9162C172.927 43.9162 172.145 43.7408 171.473 43.3902C170.812 43.0295 170.297 42.5385 169.925 41.9173C169.565 41.2962 169.384 40.5898 169.384 39.7983C169.384 38.9968 169.56 38.2904 169.91 37.6792C170.271 37.058 170.762 36.572 171.383 36.2214C172.015 35.8707 172.731 35.6954 173.532 35.6954C174.314 35.6954 175.011 35.8657 175.621 36.2064C176.233 36.5471 176.714 37.028 177.064 37.6491C177.416 38.2703 177.59 39.0017 177.59 39.8434C177.59 39.9235 177.586 40.0136 177.575 40.1139C177.575 40.2141 177.571 40.3092 177.56 40.3994H170.872V39.152H176.568L175.832 39.5428C175.842 39.0818 175.747 38.6761 175.546 38.3254C175.346 37.9748 175.071 37.6992 174.72 37.4988C174.38 37.2985 173.983 37.1983 173.532 37.1983C173.072 37.1983 172.667 37.2985 172.315 37.4988C171.975 37.6992 171.705 37.9798 171.504 38.3405C171.314 38.6911 171.218 39.1069 171.218 39.5879V39.8884C171.218 40.3694 171.329 40.7951 171.549 41.1659C171.769 41.5366 172.08 41.8222 172.48 42.0225C172.882 42.2229 173.343 42.3231 173.863 42.3231C174.314 42.3231 174.72 42.2529 175.08 42.1127C175.441 41.9725 175.762 41.752 176.042 41.4514L177.049 42.6087C176.688 43.0295 176.233 43.3551 175.682 43.5855C175.141 43.806 174.52 43.9162 173.818 43.9162ZM178.371 43.796L178.461 42.2179C178.531 42.228 178.596 42.2379 178.656 42.248C178.716 42.258 178.772 42.263 178.821 42.263C179.132 42.263 179.373 42.1679 179.543 41.9775C179.713 41.7871 179.839 41.5316 179.919 41.211C180.009 40.8803 180.069 40.5147 180.099 40.1139C180.139 39.7031 180.169 39.2923 180.189 38.8815L180.324 35.7855H186.817V43.811H184.938V36.8676L185.374 37.3786H181.557L181.962 36.8526L181.857 38.9717C181.827 39.683 181.767 40.3443 181.677 40.9555C181.597 41.5566 181.467 42.0827 181.286 42.5335C181.116 42.9844 180.876 43.335 180.565 43.5855C180.264 43.8361 179.878 43.9613 179.408 43.9613C179.257 43.9613 179.092 43.9462 178.912 43.9162C178.742 43.8861 178.561 43.846 178.371 43.796ZM189.346 43.811V35.7855H191.225V41.0757L195.658 35.7855H197.372V43.811H195.493V38.5208L191.075 43.811H189.346Z" fill="#D43D58"/>
</svg>
