<svg width="309" height="94" viewBox="0 0 309 94" fill="none" xmlns="http://www.w3.org/2000/svg">
<path d="M130.855 62.4168C130.855 65.2502 129.778 66.3334 127.128 66.3334H117.769V56.6669H127.128C129.778 56.6669 130.855 58.0002 130.855 60.5835V62.4168ZM127.128 50.3334H107.583V56.2501L111.061 56.7501V80.417H117.769V72.6666H127.128C134.83 72.6666 137.481 68.7499 137.481 62.6668V60.3335C137.481 54.5836 134.996 50.3334 127.128 50.3334ZM271.483 50.3334H273.967V80.417H267.259V59.0828L253.428 80.417H245.726V50.3334H252.434V70.9211L262.538 55.1668C265.106 51.1667 267.342 50.3334 271.483 50.3334ZM82.1572 13.5835H100.46V17.3333C100.46 20.3334 100.212 22.8332 99.549 25.0833H93.8345V19.9166H82.1572C78.6786 19.9166 77.8502 20.8334 77.8502 24.6668V32.5833C77.8502 36.4167 78.6786 37.3335 82.1572 37.3335H100.46V43.6667H82.1572C73.6268 43.6667 71.1422 41.1669 71.1422 32.5833V24.6668C71.1422 16 73.6268 13.5835 82.1572 13.5835ZM267.259 13.5835H273.967V43.6667H267.259V31.5832H252.434V43.6667H245.726V13.5835H252.434V25.2501H267.259V13.5835ZM90.439 74.0838H78.844V68.2502H90.439C92.6752 68.2502 93.5034 69.3336 93.5034 71.0833C93.5034 72.8334 92.6752 74.0838 90.439 74.0838ZM92.178 59.3335C92.178 61.1671 91.2675 62.1667 88.9482 62.1667H78.844V56.7501H88.9482C91.2675 56.7501 92.178 57.5834 92.178 59.3335ZM96.0079 64.5194C97.5801 63.5538 98.8866 61.5017 98.8866 58.3334C98.8866 54.25 96.5677 50.3334 89.6936 50.3334H72.136V80.417H90.3563C96.9816 80.417 100.212 77.0004 100.212 71.4168C100.212 67.6625 98.0689 65.4497 96.0079 64.5194ZM221.542 50.3334H240.011V54.0836C240.011 57.0837 239.763 59.5835 239.1 61.8336H233.385V56.6669H221.542C218.064 56.6669 217.236 57.5834 217.236 61.4168V69.3336C217.236 73.1669 218.064 74.0838 221.542 74.0838H240.011V80.417H221.542C213.012 80.417 210.527 77.9168 210.527 69.3336V61.4168C210.527 52.7499 213.012 50.3334 221.542 50.3334ZM164.976 69.3336C164.976 73.1669 164.148 74.0838 160.67 74.0838H152.719C149.241 74.0838 148.413 73.1669 148.413 69.3336V61.4168C148.413 57.5834 149.241 56.6669 152.719 56.6669H160.67C164.148 56.6669 164.976 57.5834 164.976 61.4168V69.3336ZM160.67 50.3334H152.719C144.189 50.3334 141.704 52.7499 141.704 61.4168V69.3336C141.704 77.9168 144.189 80.417 152.719 80.417H160.67C169.283 80.417 171.685 77.9168 171.685 69.3336V61.4168C171.685 52.7499 169.283 50.3334 160.67 50.3334ZM116.128 19.9166H127.956V36.4167H113.607C114.524 34.8046 114.911 32.5571 115.202 29.6667L116.128 19.9166ZM134.665 13.5835H110.233L108.742 28.8335C107.997 36.0834 106.92 37.2499 104.932 37.2499H104.518V46.5H110.896L111.144 42.6666H130.855L131.104 46.5H137.481V37.1667H134.665V13.5835ZM187.421 50.3334H205.807V54.0836C205.807 57.0837 205.558 59.5835 204.896 61.8336H199.181V56.6669H187.421C183.942 56.6669 183.114 57.5834 183.114 61.4168V69.3336C183.114 73.1669 183.942 74.0838 187.421 74.0838H205.807V80.417H187.421C178.89 80.417 176.406 77.9168 176.406 69.3336V61.4168C176.406 52.7499 178.89 50.3334 187.421 50.3334ZM302.291 32.5833C302.291 36.4167 301.463 37.3335 297.985 37.3335H290.614C287.135 37.3335 286.307 36.4167 286.307 32.5833V24.6668C286.307 20.8334 287.135 19.9166 290.614 19.9166H297.985C301.463 19.9166 302.291 20.8334 302.291 24.6668V32.5833ZM297.985 13.5835H290.614C282.083 13.5835 279.599 16 279.599 24.6668V32.5833C279.599 41.1669 282.911 43.6667 291.442 43.6667H297.157C305.77 43.6667 309 41.1669 309 32.5833V24.6668C309 16 306.598 13.5835 297.985 13.5835ZM142.201 32.5833V24.6668C142.201 16 144.603 13.5835 153.216 13.5835H170.774V19.9166H152.885C149.407 19.9166 148.91 20.4999 148.91 24.3333V25.3333H165.888V31.5832H148.91V32.9169C148.91 36.7502 149.407 37.3335 152.885 37.3335H171.023V43.6667H153.216C144.603 43.6667 142.201 41.1669 142.201 32.5833ZM222.205 19.9166H232.723V27.3334H217.898V24.6668C217.898 21.2502 218.312 19.9166 222.205 19.9166ZM217.898 33.5833H232.723V43.6667H239.431V13.5835H222.205C213.757 13.5835 211.19 15.9168 211.19 24.6668V43.6667H217.898V33.5833ZM39.5049 50.3334H46.2132V80.417H24.7632C16.1497 80.417 12.9199 77.1668 12.9199 68.5003V50.3334H19.6281V68.6667C19.6281 72.5004 21.119 74.0838 24.5974 74.0838H39.5049V50.3334ZM6.45976 6.99995H52.6734V87.0004H6.45976V6.99995ZM0 93.5H59.1333V0.5H0V93.5ZM175.081 43.6667V37.2499C177.814 37.2499 178.476 35.5834 179.056 30L180.878 13.5835H204.896V43.6667H198.188V19.9166H186.62L185.433 31.4168C184.439 41.3333 181.789 44.0002 175.081 43.6667ZM306.018 50.3334H308.503V80.417H301.795V59.0828L287.964 80.417H280.262V50.3334H286.97V70.9211L297.074 55.1668C299.641 51.1667 301.877 50.3334 306.018 50.3334ZM36.1924 26.7501H19.6281V19.9166H36.1924C38.6765 19.9166 39.8361 21.2502 39.8361 23.25C39.8361 25.2501 38.8422 26.7501 36.1924 26.7501ZM46.5447 22.5C46.5447 17.5001 44.1431 13.5835 37.1029 13.5835H12.9199V43.6667H19.6281V33.0833H35.1155C38.5941 33.0833 39.5049 34.0834 39.5049 37.5835V43.6667H46.2132V36.4999C46.2132 32.9254 44.953 30.8283 42.1537 30.115C45.066 29.1244 46.5447 26.2911 46.5447 22.5Z" fill="white"/>
</svg>
