<svg width="42" height="42" viewBox="0 0 42 42" fill="none" xmlns="http://www.w3.org/2000/svg">
<circle cx="21" cy="21" r="20" fill="white" stroke="#AE323E" stroke-width="1.5"/>
<path d="M28.7379 14.5912L28.7318 14.5958C28.1998 14.9971 27.6283 15.3084 27.0184 15.5251C26.4032 15.7448 25.768 15.8553 25.1167 15.8554C25.1165 15.8554 25.1163 15.8554 25.1161 15.8554V15.0554C23.6006 15.0565 22.3214 14.5429 21.2786 13.5143C20.2357 12.4857 19.7143 11.2137 19.7143 9.69821L28.7379 14.5912ZM28.7379 14.5912L28.7439 14.5865M28.7379 14.5912L28.7439 14.5865M28.7439 14.5865L29.022 14.3683C30.2519 15.386 31.2319 16.6344 31.9645 18.1214C32.7897 19.7964 33.2011 21.5686 33.2 23.4477V23.4482M28.7439 14.5865L33.2 23.4482M33.2 23.4482C33.2 26.7245 32.0696 29.4747 29.7985 31.747M33.2 23.4482L29.7985 31.747M29.7985 31.747C27.5275 34.019 24.7776 35.1493 21.5003 35.1482M29.7985 31.747L21.5003 35.1482M21.5003 35.1482C18.2225 35.1471 15.4729 34.0166 13.2032 31.7468M21.5003 35.1482L13.2032 31.7468M13.2032 31.7468C10.9335 29.4771 9.8023 26.727 9.8 23.4479L13.2032 31.7468ZM9.98571 23.4465V23.4482C9.98571 25.6507 10.5763 27.6841 11.7541 29.5303L11.7542 29.5304C12.9303 31.3732 14.5174 32.7623 16.5017 33.686L19.0787 34.8856L17.867 33.0618C18.0255 33.2881 18.209 33.5034 18.417 33.7072C19.2662 34.5391 20.3086 34.9625 21.5 34.9625C22.6914 34.9625 23.7335 34.539 24.5817 33.7067C25.4277 32.8767 25.8685 31.8551 25.8714 30.6824V30.6804C25.8714 30.1017 25.7623 29.551 25.5344 29.039C25.314 28.5437 25.0037 28.0987 24.6114 27.705L24.6114 27.705L24.6053 27.699L22.0607 25.199L21.5 24.6481L20.9393 25.199L18.3947 27.699L18.3947 27.699L18.3897 27.704C17.9919 28.1017 17.6806 28.5583 17.4611 29.0706C17.2405 29.5852 17.1286 30.1239 17.1286 30.6804C17.1286 31.4936 17.3401 32.2342 17.7519 32.8887L17.5056 32.518C17.3109 32.225 17.1712 31.9276 17.0809 31.625L17.0803 31.623C16.9889 31.3191 16.9429 31.0058 16.9429 30.6804C16.9429 30.0894 17.0592 29.5361 17.2906 29.0128L17.2911 29.0116C17.5256 28.4789 17.8561 27.9972 18.2886 27.5642C18.2893 27.5635 18.29 27.5628 18.2907 27.5621L21.5025 24.3974L24.7465 27.5653C25.1748 27.9945 25.4979 28.4724 25.7225 29.0017C25.9448 29.5275 26.0571 30.0847 26.0571 30.6804C26.0571 31.0041 26.0112 31.3184 25.9195 31.6255C25.8293 31.926 25.6893 32.2236 25.4937 32.519L23.9312 34.8786L26.4978 33.6862C28.4835 32.7638 30.0709 31.3745 31.2459 29.5303C32.4237 27.6841 33.0143 25.6507 33.0143 23.4482C33.0143 21.8589 32.72 20.3477 32.1282 18.9219C31.5367 17.4971 30.6803 16.2267 29.565 15.114L29.1068 14.6568L28.564 15.0096C28.0308 15.3562 27.4757 15.6134 26.8977 15.7848C26.3173 15.9568 25.7247 16.0421 25.1175 16.0411H25.1161C23.4393 16.0411 22.0203 15.5006 20.8178 14.4165C19.6134 13.3308 18.9351 11.9884 18.7691 10.3515L18.618 8.86001L17.4631 9.81586C16.269 10.8042 15.2078 11.8462 14.2817 12.9427C13.3579 14.0365 12.5752 15.1624 11.9368 16.3211C11.2981 17.4803 10.8125 18.6588 10.4839 19.8561C10.1553 21.0535 9.98825 22.2509 9.98571 23.4465ZM12.5525 14.9071C14.163 12.456 16.2796 10.3129 18.9143 8.48286L9.8 23.4477C9.80011 20.5649 10.7031 17.722 12.5525 14.9071Z" stroke="#AE323E" stroke-width="1.6"/>
</svg>
